<?xml version="1.0" encoding="utf-8"?>
<!-- Generator: Adobe Illustrator 19.0.0, SVG Export Plug-In . SVG Version: 6.00 Build 0)  -->
<svg version="1.0" id="Layer_1" xmlns="http://www.w3.org/2000/svg" xmlns:xlink="http://www.w3.org/1999/xlink" x="0px" y="0px"
	 viewBox="0 0 328.3 85" style="enable-background:new 0 0 328.3 85;" xml:space="preserve">
<style type="text/css">
	.st0{fill:#1A1A1A;}
	.st1{opacity:0.8;}
	.st2{fill:#FCB813;}
	.st3{fill:none;}
	.st4{fill:none;stroke:#FFFF00;stroke-miterlimit:10;}
	.st5{fill:#524FA0;}
	.st6{clip-path:url(#SVGID_2_);}
	.st7{fill:#FFFFFF;}
	.st8{opacity:0.6;}
</style>
<g>
	<path class="st0" d="M14.8,25.2h10.9v7.2H14.8v14.8h13.8v7.2H6.9V3.8h21.7v7.2H14.8V25.2z"/>
	<path class="st0" d="M52.3,54.5c-0.4-1.3-0.7-2.1-0.7-6.2v-8c0-4.7-1.6-6.4-5.2-6.4h-2.8v20.6h-8V3.8h12c8.3,0,11.8,3.8,11.8,11.7
		v4c0,5.2-1.7,8.6-5.2,10.3c4,1.7,5.3,5.5,5.3,10.8v7.8c0,2.5,0.1,4.3,0.9,6.2H52.3z M43.6,11.1v15.6h3.1c3,0,4.8-1.3,4.8-5.4v-5
		c0-3.6-1.2-5.2-4.1-5.2H43.6z"/>
	<path class="st0" d="M66.2,16c0-8.1,4.3-12.7,12.1-12.7S90.4,7.9,90.4,16v26.4c0,8.1-4.3,12.7-12.1,12.7s-12.1-4.6-12.1-12.7V16z
		 M74.2,42.9c0,3.6,1.6,5,4.1,5s4.1-1.4,4.1-5V15.5c0-3.6-1.6-5-4.1-5s-4.1,1.4-4.1,5V42.9z"/>
	<path class="st0" d="M108.3,3.2c7.7,0,11.7,4.6,11.7,12.7v1.6h-7.5v-2.1c0-3.6-1.4-5-4-5s-4,1.4-4,5c0,10.4,15.6,12.4,15.6,26.9
		c0,8.1-4.1,12.7-11.9,12.7c-7.8,0-11.9-4.6-11.9-12.7v-3.1h7.5v3.6c0,3.6,1.6,4.9,4.1,4.9c2.5,0,4.1-1.3,4.1-4.9
		c0-10.4-15.6-12.4-15.6-26.9C96.6,7.9,100.6,3.2,108.3,3.2z"/>
	<path class="st0" d="M203.2,35.6v6.7c0,8.1-4.1,12.7-11.9,12.7s-11.9-4.6-11.9-12.7V16c0-8.1,4.1-12.7,11.9-12.7
		s11.9,4.6,11.9,12.7v4.9h-7.5v-5.4c0-3.6-1.6-5-4.1-5s-4.1,1.4-4.1,5v27.4c0,3.6,1.6,4.9,4.1,4.9s4.1-1.3,4.1-4.9v-7.2H203.2z"/>
	<path class="st0" d="M209.5,16c0-8.1,4.3-12.7,12.1-12.7s12.1,4.6,12.1,12.7v26.4c0,8.1-4.3,12.7-12.1,12.7s-12.1-4.6-12.1-12.7V16
		z M217.5,42.9c0,3.6,1.6,5,4.1,5s4.1-1.4,4.1-5V15.5c0-3.6-1.6-5-4.1-5s-4.1,1.4-4.1,5V42.9z"/>
	<path class="st0" d="M240.9,3.8h12.6c8,0,11.9,4.4,11.9,12.5V42c0,8.1-3.9,12.5-11.9,12.5h-12.6V3.8z M248.9,11.1v36.2h4.5
		c2.5,0,4.1-1.3,4.1-4.9V16c0-3.6-1.5-4.9-4.1-4.9H248.9z"/>
	<path class="st0" d="M280.5,25.2h10.9v7.2h-10.9v14.8h13.8v7.2h-21.7V3.8h21.7v7.2h-13.8V25.2z"/>
	<path class="st0" d="M312,3.2c7.7,0,11.7,4.6,11.7,12.7v1.6h-7.5v-2.1c0-3.6-1.4-5-4-5s-4,1.4-4,5c0,10.4,15.6,12.4,15.6,26.9
		c0,8.1-4.1,12.7-11.9,12.7c-7.8,0-11.9-4.6-11.9-12.7v-3.1h7.5v3.6c0,3.6,1.6,4.9,4.1,4.9c2.5,0,4.1-1.3,4.1-4.9
		c0-10.4-15.6-12.4-15.6-26.9C300.3,7.9,304.3,3.2,312,3.2z"/>
</g>
<g class="st1">
	<path d="M20.1,72.4c0,3.6-2.9,6.4-6.6,6.4c-3.7,0-6.6-2.8-6.6-6.4s2.9-6.4,6.6-6.4C17.2,66.1,20.1,68.9,20.1,72.4z M8.3,72.4
		c0,2.8,2.4,5.1,5.2,5.1c2.8,0,5.1-2.3,5.1-5.1s-2.3-5-5.1-5C10.7,67.4,8.3,69.6,8.3,72.4z"/>
	<path d="M24.2,68.3v1.2H27v1.1h-2.7v8.1h-1.4v-8.1h-1.2v-1.1h1.2v-1.1c0-2.1,1.5-3.2,3.1-3.2c0.7,0,1.5,0.2,2,0.7L27.4,67
		c-0.4-0.3-1-0.5-1.4-0.5C25,66.5,24.2,67.2,24.2,68.3z M31.9,65.2c0.6,0,1.2,0.2,1.7,0.5l0,1.3c-0.5-0.3-1.1-0.5-1.7-0.5
		c-0.9,0-1.7,0.6-1.7,1.7v1.2H33v1.1h-2.7v8.2h-1.4v-8.2h-1.2v-1.1h1.2v-1.1C28.9,66.3,30.4,65.2,31.9,65.2z M34.2,66.5
		c0-0.6,0.4-1,0.9-1c0.5,0,0.9,0.4,0.9,1c0,0.5-0.4,1-0.9,1C34.6,67.5,34.2,67.1,34.2,66.5z M34.4,69.2h1.4v9.5h-1.4V69.2z"/>
	<path d="M43.1,70.5c-2,0-3.4,1.4-3.4,3.5c0,2.1,1.4,3.6,3.4,3.6c1.2,0,2.3-0.4,2.9-1.2l0.8,0.8c-0.9,1-2.2,1.6-3.8,1.6
		c-2.8,0-4.7-2-4.7-4.8c0-2.8,2-4.8,4.7-4.8c1.5,0,2.8,0.5,3.7,1.4l-0.8,1C45.2,70.9,44.2,70.5,43.1,70.5z"/>
	<path d="M51,66.5c0,0.5-0.4,1-0.9,1s-0.9-0.4-0.9-1c0-0.6,0.4-1,0.9-1S51,65.9,51,66.5z M50.8,69.2v9.5h-1.4v-9.5H50.8z"/>
	<path d="M60.2,78.8v-1.5c-0.8,1-2,1.5-3.5,1.5c-2,0-3.2-1.2-3.2-2.9c0-1.7,1.3-2.7,3.6-2.7h3.1v-0.6c0-1.4-0.9-2.2-2.6-2.2
		c-1,0-2,0.4-3,1.1l-0.6-1c1.2-0.8,2.3-1.3,3.9-1.3c2.4,0,3.7,1.2,3.7,3.3l0,6.3H60.2z M60.2,75.5v-1.2h-3c-1.6,0-2.4,0.5-2.4,1.6
		c0,1,0.9,1.8,2.2,1.8C58.6,77.6,59.8,76.8,60.2,75.5z"/>
	<path d="M66.2,65.3v13.4h-1.4V65.3H66.2z"/>
	<path d="M75.1,66.1l3.5,11l3.4-11h1.4l3.5,11l3.4-11h1.5l-4.3,12.7h-1.5L82.7,68l-3.5,10.7h-1.5l-4.2-12.7H75.1z"/>
	<path d="M101.4,74c0,2.8-2,4.8-4.8,4.8c-2.8,0-4.8-2-4.8-4.8c0-2.8,2-4.8,4.8-4.8C99.4,69.2,101.4,71.2,101.4,74z M93.1,74
		c0,2.1,1.4,3.6,3.4,3.6c2,0,3.4-1.4,3.4-3.6c0-2.1-1.4-3.6-3.4-3.6C94.5,70.4,93.1,71.9,93.1,74z"/>
	<path d="M108.7,69.2v1.4c-2,0-3.3,1.2-3.4,3.1v5.1h-1.4v-9.5h1.4v2.1C105.9,70,107.1,69.2,108.7,69.2z"/>
	<path d="M112.1,65.3v13.4h-1.4V65.3H112.1z"/>
	<path d="M124.4,65.3v13.4H123v-2c-0.7,1.3-2,2.1-3.7,2.1c-2.7,0-4.6-2-4.6-4.9c0-2.8,1.9-4.8,4.6-4.8c1.7,0,3,0.8,3.7,2.1v-6H124.4
		z M123,74c0-2.1-1.4-3.6-3.4-3.6c-2,0-3.5,1.5-3.5,3.6c0,2.1,1.4,3.6,3.5,3.6C121.5,77.6,123,76.1,123,74z"/>
	<path d="M131.8,67.4c-1.6,0-2.7,0.7-2.7,1.7c0,3.3,7.1,1.6,7.1,6.2c0,2.1-1.9,3.5-4.6,3.5c-1.8,0-3.7-0.8-4.9-1.9l0.7-1.2
		c1.2,1.1,2.8,1.8,4.2,1.8c1.8,0,3-0.7,3-2c0-3.4-7.1-1.6-7.1-6.1c0-2,1.8-3.3,4.4-3.3c1.5,0,3,0.5,4,1.2l-0.6,1.3
		C134.1,67.8,132.8,67.4,131.8,67.4z"/>
	<path d="M142.5,73.9l-2,2.1v2.8h-1.4V65.3h1.4v8.8l4.9-4.9h1.7l-3.6,3.7l3.9,5.8h-1.7L142.5,73.9z"/>
	<path d="M150.9,66.5c0,0.5-0.4,1-0.9,1s-0.9-0.4-0.9-1c0-0.6,0.4-1,0.9-1S150.9,65.9,150.9,66.5z M150.7,69.2v9.5h-1.4v-9.5H150.7z
		"/>
	<path d="M155.7,65.3v13.4h-1.4V65.3H155.7z"/>
	<path d="M160.7,65.3v13.4h-1.4V65.3H160.7z"/>
	<path d="M166.7,70.4c-1.1,0-1.9,0.4-1.9,1.3c0,2.2,5.3,1,5.3,4.5c0,1.9-1.7,2.7-3.5,2.7c-1.4,0-2.8-0.5-3.7-1.3l0.5-1
		c0.8,0.8,2,1.2,3.2,1.2s2-0.4,2-1.4c0.1-2.3-5.3-1.1-5.3-4.5c0-1.8,1.6-2.6,3.3-2.6c1.1,0,2.2,0.3,3,0.9l-0.5,1.1
		C168.5,70.7,167.6,70.4,166.7,70.4z"/>
	<path d="M186.1,66.1v1.3h-4.1v11.3h-1.4V67.4h-4.1v-1.3H186.1z"/>
	<path d="M191.9,69.2v1.4c-2,0-3.3,1.2-3.4,3.1v5.1h-1.4v-9.5h1.4v2.1C189.1,70,190.3,69.2,191.9,69.2z"/>
	<path d="M199.3,78.8v-1.5c-0.8,1-2,1.5-3.5,1.5c-2,0-3.2-1.2-3.2-2.9c0-1.7,1.3-2.7,3.6-2.7h3.1v-0.6c0-1.4-0.9-2.2-2.6-2.2
		c-1,0-2,0.4-3,1.1l-0.6-1c1.2-0.8,2.3-1.3,3.9-1.3c2.4,0,3.7,1.2,3.7,3.3l0,6.3H199.3z M199.2,75.5v-1.2h-3c-1.6,0-2.4,0.5-2.4,1.6
		c0,1,0.9,1.8,2.2,1.8C197.6,77.6,198.9,76.8,199.2,75.5z"/>
	<path d="M205.4,66.5c0,0.5-0.4,1-0.9,1c-0.5,0-0.9-0.4-0.9-1c0-0.6,0.4-1,0.9-1C205,65.5,205.4,65.9,205.4,66.5z M205.2,69.2v9.5
		h-1.4v-9.5H205.2z"/>
	<path d="M217.3,72.9v5.9h-1.4v-5.5c0-1.7-1-2.7-2.7-2.7c-1.9,0-3,1.3-3.2,3.1v5.1h-1.4v-9.5h1.4v2.1c0.7-1.4,2-2.1,3.7-2.2
		C216,69.2,217.3,70.6,217.3,72.9z"/>
	<path d="M222.1,66.5c0,0.5-0.4,1-0.9,1s-0.9-0.4-0.9-1c0-0.6,0.4-1,0.9-1S222.1,65.9,222.1,66.5z M221.9,69.2v9.5h-1.4v-9.5H221.9z
		"/>
	<path d="M234,72.9v5.9h-1.4v-5.5c0-1.7-1-2.7-2.7-2.7c-1.9,0-3,1.3-3.2,3.1v5.1h-1.4v-9.5h1.4v2.1c0.7-1.4,2-2.1,3.7-2.2
		C232.7,69.2,234,70.6,234,72.9z"/>
	<path d="M245.5,69.2v8.5c0,2.8-1.9,4.5-4.8,4.5c-1.5,0-2.8-0.5-3.9-1.4l0.7-1c0.9,0.8,1.9,1.2,3.2,1.2c2.1,0,3.4-1.3,3.4-3.3v-1.4
		c-0.7,1.3-1.9,2-3.5,2c-2.6,0-4.3-1.9-4.3-4.6c0-2.7,1.8-4.5,4.3-4.6c1.6,0,2.9,0.7,3.5,2v-1.9H245.5z M244.1,73.8
		c0-2-1.4-3.4-3.3-3.4c-1.9,0-3.3,1.4-3.3,3.4c0,2,1.4,3.4,3.3,3.4C242.7,77.2,244.1,75.8,244.1,73.8z"/>
	<path d="M263.2,72.6h1.3v4.6c-1.2,1-3,1.6-4.7,1.6c-3.7,0-6.6-2.8-6.6-6.4s2.9-6.4,6.7-6.4c1.8,0,3.5,0.7,4.7,1.7l-0.8,1
		c-1-0.9-2.4-1.5-3.8-1.5c-2.9,0-5.2,2.2-5.2,5c0,2.8,2.3,5.1,5.2,5.1c1.1,0,2.4-0.4,3.3-1.1V72.6z"/>
	<path d="M276,69.2v9.5h-1.4v-2.2c-0.6,1.5-1.9,2.2-3.6,2.2c-2.2,0-3.6-1.4-3.6-3.7v-5.9h1.4v5.5c0,1.7,1,2.7,2.6,2.7
		c2,0,3.1-1.5,3.1-3.5v-4.7H276z"/>
	<path d="M281.1,66.5c0,0.5-0.4,1-0.9,1s-0.9-0.4-0.9-1c0-0.6,0.4-1,0.9-1S281.1,65.9,281.1,66.5z M280.9,69.2v9.5h-1.4v-9.5H280.9z
		"/>
	<path d="M293.1,65.3v13.4h-1.4v-2c-0.7,1.3-2,2.1-3.7,2.1c-2.7,0-4.6-2-4.6-4.9c0-2.8,1.9-4.8,4.6-4.8c1.7,0,3,0.8,3.7,2.1v-6
		H293.1z M291.6,74c0-2.1-1.4-3.6-3.4-3.6c-2,0-3.5,1.5-3.5,3.6c0,2.1,1.4,3.6,3.5,3.6C290.2,77.6,291.6,76.1,291.6,74z"/>
	<path d="M304.8,74.5H297c0.2,1.9,1.6,3.1,3.5,3.1c1.2,0,2.2-0.4,3-1.2l0.8,0.8c-0.9,1-2.2,1.6-3.8,1.6c-2.8,0-4.7-2-4.7-4.8
		c0-2.8,2-4.8,4.7-4.8C303.4,69.2,304.9,71.3,304.8,74.5z M303.5,73.4c-0.1-1.8-1.3-3-3.2-3c-1.8,0-3.1,1.2-3.3,3H303.5z"/>
</g>
<g>
	<path class="st2" d="M158.7,19.4c0,0-0.5,0-1.4,0.1c-0.5,0-1,0.1-1.6,0.2c-0.6,0.1-1.3,0.3-2.1,0.5c-0.4,0.1-0.8,0.2-1.1,0.4
		c-0.4,0.2-0.8,0.3-1.2,0.5c-0.4,0.2-0.8,0.4-1.2,0.6c-0.4,0.2-0.8,0.4-1.2,0.7c-0.8,0.6-1.6,1.1-2.3,1.8c-0.8,0.6-1.5,1.4-2.1,2.1
		c-0.6,0.8-1.3,1.6-1.8,2.4c-0.3,0.4-0.5,0.8-0.7,1.3c-0.2,0.4-0.5,0.8-0.6,1.3c-0.3,0.9-0.7,1.7-0.9,2.5c-0.1,0.4-0.3,0.8-0.4,1.2
		c-0.1,0.4-0.2,0.8-0.2,1.1c-0.2,0.7-0.2,1.4-0.3,2c0,0.3-0.1,0.6-0.1,0.8c0,0.3,0,0.5,0,0.8c0,0.8,0,1.3,0,1.4
		c2.5,2,5.6,3.2,9.1,3.2c8.1,0,14.6-6.5,14.6-14.6v0C163,25.7,161.4,22,158.7,19.4z"/>
	<path class="st2" d="M137.1,37.9c0.1-0.7,0.2-1.4,0.5-2.2c0.1-0.4,0.2-0.8,0.3-1.2c0.1-0.4,0.3-0.8,0.5-1.3
		c0.3-0.9,0.8-1.8,1.2-2.7c0.2-0.4,0.5-0.9,0.8-1.3c0.3-0.5,0.6-0.9,0.9-1.3c0.6-0.9,1.3-1.7,2.1-2.4c0.8-0.7,1.6-1.5,2.4-2.1
		c0.8-0.7,1.7-1.2,2.6-1.7c0.4-0.2,0.9-0.4,1.3-0.6c0.4-0.2,0.9-0.4,1.3-0.5c0.4-0.1,0.8-0.3,1.3-0.4c0.4-0.1,0.8-0.2,1.2-0.3
		c0.8-0.2,1.5-0.3,2.1-0.4c0.6-0.1,1.2-0.1,1.6-0.1c0.9,0,1.4,0,1.4,0c-2.6-2.6-6.3-4.3-10.3-4.3h-14.6v14.6c0,3.5,1.2,6.6,3.2,9.1
		C137,38.6,137.1,38.3,137.1,37.9z"/>
</g>
<path class="st3" d="M148.4,15.1h-14.6v14.6c0,8.1,6.5,14.6,14.6,14.6h0c8.1,0,14.6-6.5,14.6-14.6v0C163,21.6,156.5,15.1,148.4,15.1
	z"/>
<path class="st4" d="M145.1,16.5"/>
<path class="st4" d="M159.7,31.1"/>
<g>
	<circle class="st5" cx="158.8" cy="38.8" r="7"/>
	<g>
		<defs>
			<circle id="SVGID_1_" cx="158.8" cy="38.8" r="7"/>
		</defs>
		<clipPath id="SVGID_2_">
			<use xlink:href="#SVGID_1_"  style="overflow:visible;"/>
		</clipPath>
		<g class="st6">
			<path class="st7" d="M165.1,42.7c0,0,0-0.3,0-0.7c0-0.2-0.1-0.4-0.1-0.7c0-0.3-0.2-0.6-0.3-0.9c-0.1-0.3-0.3-0.7-0.5-1
				c-0.2-0.4-0.4-0.7-0.7-1.1c-0.3-0.4-0.6-0.7-0.9-1.1c-0.4-0.3-0.7-0.7-1.1-1c-0.4-0.3-0.8-0.6-1.2-0.8c-0.4-0.2-0.8-0.5-1.3-0.7
				c-0.4-0.2-0.8-0.4-1.2-0.5c-0.4-0.2-0.8-0.2-1.2-0.3c-0.4-0.1-0.7-0.1-1-0.2c-0.3-0.1-0.6-0.1-0.8-0.1c-0.4,0-0.7-0.1-0.7-0.1
				s0.3,0,0.7,0c0.2,0,0.5,0,0.8,0c0.3,0,0.7,0,1,0.1c0.4,0.1,0.8,0.1,1.2,0.3c0.4,0.1,0.9,0.2,1.3,0.4c0.5,0.1,0.9,0.4,1.3,0.6
				c0.4,0.3,0.9,0.5,1.3,0.8c0.4,0.3,0.8,0.6,1.2,0.9c0.4,0.3,0.7,0.7,1.1,1.1c0.3,0.4,0.6,0.7,0.8,1.1c0.2,0.4,0.4,0.8,0.6,1.1
				c0.1,0.4,0.3,0.7,0.4,1c0.1,0.3,0.2,0.6,0.2,0.8c0,0.4,0.1,0.7,0.1,0.7L165.1,42.7z"/>
		</g>
	</g>
</g>
<g>
	<path class="st5" d="M154.8,33.6c0.2,0,0.5,0,0.8,0c0.3,0,0.7,0,1,0.1c0.7,0.1,1.6,0.3,2.5,0.7c0.9,0.3,1.8,0.8,2.7,1.4
		c0.4,0.3,0.8,0.6,1.2,0.9c0.4,0.3,0.8,0.7,1.1,1.1c0.3,0.4,0.6,0.7,0.9,1.1c0.2,0.4,0.5,0.8,0.6,1.1c0,0,0,0.1,0,0.1
		c0.1-0.4,0.1-0.9,0.1-1.4v-7h-7c-1.8,0-3.4,0.7-4.7,1.8C154.1,33.6,154.3,33.6,154.8,33.6z"/>
	<path class="st5" d="M164.9,42c0-0.2-0.1-0.4-0.1-0.7c0-0.3-0.2-0.6-0.2-0.9c-0.1-0.3-0.3-0.7-0.5-1c-0.2-0.4-0.4-0.7-0.7-1.1
		c-0.3-0.4-0.6-0.7-0.9-1.1c-0.3-0.3-0.7-0.7-1.1-1c-0.8-0.6-1.6-1.1-2.5-1.5c-0.8-0.4-1.7-0.7-2.4-0.8c-0.4-0.1-0.7-0.1-1-0.2
		c-0.3-0.1-0.6-0.1-0.8-0.1c-0.4,0-0.7-0.1-0.7-0.1c-1.4,1.3-2.3,3.1-2.3,5.2c0,3.9,3.1,7,7,7C161.4,45.8,163.7,44.3,164.9,42
		C164.9,42.1,164.9,42.1,164.9,42z"/>
</g>
<path class="st3" d="M151.8,38.8L151.8,38.8c0,3.9,3.1,7,7,7h0c3.9,0,7-3.1,7-7v-7h-7C154.9,31.8,151.8,34.9,151.8,38.8z"/>
<g class="st8">
	<path class="st7" d="M25.4,355.3c0,0,0.1-1,0.2-2.9c0.1-0.9,0.1-2.1,0.2-3.5c0-0.7,0.1-1.4,0.1-2.2c0.1-0.8,0.2-1.7,0.3-2.6
		c0.2-1.9,0.4-3.9,0.6-6.1c0.3-2.2,0.7-4.5,1.1-7c0.8-5,2-10.6,3.6-16.7c0.4-1.5,0.8-3,1.3-4.6c0.5-1.6,1-3.1,1.5-4.7
		c0.5-1.6,1.1-3.2,1.7-4.8c0.6-1.6,1.1-3.3,1.9-4.9c1.4-3.3,2.7-6.7,4.4-10c0.4-0.8,0.8-1.7,1.2-2.5l0.6-1.3l0.7-1.3
		c0.9-1.7,1.8-3.4,2.7-5.1c0.9-1.7,2-3.4,3-5.1c0.5-0.8,1-1.7,1.5-2.5c0.5-0.8,1.1-1.7,1.6-2.5c1.1-1.7,2.2-3.3,3.3-5
		c1.2-1.6,2.4-3.3,3.6-4.9c4.9-6.4,10.3-12.7,16.1-18.5c5.9-5.7,12.1-11.1,18.6-15.9c6.5-4.7,13.2-9,20-12.5
		c1.7-0.9,3.4-1.7,5.1-2.5c1.7-0.8,3.3-1.7,5-2.4c1.7-0.7,3.3-1.4,5-2.2c1.7-0.7,3.3-1.3,5-1.9c0.8-0.3,1.6-0.6,2.4-0.9
		c0.8-0.3,1.6-0.5,2.4-0.8c1.6-0.5,3.2-1,4.8-1.5c1.6-0.5,3.1-0.8,4.7-1.3c1.5-0.4,3-0.8,4.5-1.1c1.5-0.3,2.9-0.6,4.4-0.9
		c1.4-0.3,2.8-0.6,4.2-0.8c2.7-0.4,5.3-0.9,7.7-1.1c2.4-0.2,4.7-0.5,6.8-0.7c2.1-0.1,4.1-0.2,5.8-0.3c0.9,0,1.7-0.1,2.5-0.1
		c0.8,0,1.5,0,2.2,0c1.4,0,2.5,0,3.5,0c1.9,0,2.9,0,2.9,0s-1,0.1-2.9,0.2c-0.9,0.1-2.1,0.1-3.5,0.2c-0.7,0-1.4,0.1-2.2,0.1
		c-0.8,0.1-1.6,0.2-2.5,0.3c-1.7,0.2-3.7,0.4-5.8,0.6c-2.1,0.3-4.3,0.7-6.7,1.1c-2.4,0.4-4.9,1-7.6,1.6c-1.3,0.3-2.7,0.7-4.1,1
		c-1.4,0.4-2.8,0.8-4.2,1.1c-1.4,0.4-2.9,0.9-4.4,1.4c-1.5,0.5-3,0.9-4.5,1.5c-1.5,0.6-3,1.2-4.6,1.7c-0.8,0.3-1.6,0.6-2.3,0.9
		c-0.8,0.3-1.5,0.7-2.3,1c-1.6,0.7-3.1,1.4-4.7,2.1c-1.6,0.8-3.1,1.6-4.7,2.4c-1.6,0.8-3.2,1.7-4.8,2.6c-1.6,0.9-3.2,1.8-4.8,2.8
		c-6.3,3.8-12.5,8.3-18.6,13.2c-6,4.9-11.6,10.4-16.9,16.2c-5.3,5.8-10,12.1-14.3,18.4c-1,1.6-2.1,3.2-3.1,4.8
		c-1,1.6-1.9,3.3-2.9,4.9c-0.5,0.8-1,1.6-1.4,2.4c-0.4,0.8-0.9,1.7-1.3,2.5c-0.8,1.7-1.7,3.3-2.5,4.9c-0.8,1.7-1.5,3.3-2.3,4.9
		l-0.6,1.2l-0.5,1.2c-0.3,0.8-0.7,1.6-1,2.5c-1.4,3.2-2.4,6.5-3.5,9.6c-0.6,1.6-1,3.2-1.5,4.7c-0.4,1.6-0.9,3.1-1.3,4.6
		c-0.4,1.5-0.7,3-1.1,4.5c-0.4,1.5-0.7,2.9-1,4.3c-1.2,5.7-1.9,10.9-2.4,15.6c-0.2,2.3-0.4,4.5-0.6,6.5c-0.1,2-0.2,3.8-0.2,5.5
		c0,0.8-0.1,1.6-0.1,2.3c0,0.8,0,1.5,0,2.2c0,1.4,0,2.5,0,3.5c0,1.9,0,2.9,0,2.9L25.4,355.3z"/>
</g>
</svg>
