<?xml version="1.0" encoding="utf-8"?>
<!-- Generator: Adobe Illustrator 19.0.0, SVG Export Plug-In . SVG Version: 6.00 Build 0)  -->
<svg version="1.0" id="Layer_1" xmlns="http://www.w3.org/2000/svg" xmlns:xlink="http://www.w3.org/1999/xlink" x="0px" y="0px"
	 viewBox="0 0 33.7 32.3" style="enable-background:new 0 0 33.7 32.3;" xml:space="preserve">
<style type="text/css">
	.st0{fill:#FCB813;}
	.st1{fill:none;}
	.st2{fill:none;stroke:#FFFF00;stroke-miterlimit:10;}
	.st3{fill:#524FA0;}
	.st4{clip-path:url(#SVGID_2_);}
	.st5{fill:#FFFFFF;}
</style>
<g>
	<path class="st0" d="M26,5.3c0,0-0.5,0-1.4,0.1c-0.5,0-1,0.1-1.6,0.2c-0.6,0.1-1.3,0.3-2.1,0.5c-0.4,0.1-0.8,0.2-1.1,0.4
		c-0.4,0.2-0.8,0.3-1.2,0.5c-0.4,0.2-0.8,0.4-1.2,0.6c-0.4,0.2-0.8,0.4-1.2,0.7c-0.8,0.6-1.6,1.1-2.3,1.8c-0.8,0.6-1.5,1.4-2.1,2.1
		c-0.6,0.8-1.3,1.6-1.8,2.4c-0.3,0.4-0.5,0.8-0.7,1.3c-0.2,0.4-0.5,0.8-0.6,1.3c-0.3,0.9-0.7,1.7-0.9,2.5c-0.1,0.4-0.3,0.8-0.4,1.2
		c-0.1,0.4-0.2,0.8-0.2,1.1c-0.2,0.7-0.2,1.4-0.3,2c0,0.3-0.1,0.6-0.1,0.8c0,0.3,0,0.5,0,0.8c0,0.8,0,1.3,0,1.4
		c2.5,2,5.6,3.2,9.1,3.2c8.1,0,14.6-6.5,14.6-14.6v0C30.3,11.6,28.6,7.9,26,5.3z"/>
	<path class="st0" d="M4.4,23.9c0.1-0.7,0.2-1.4,0.5-2.2c0.1-0.4,0.2-0.8,0.3-1.2c0.1-0.4,0.3-0.8,0.5-1.3c0.3-0.9,0.8-1.8,1.2-2.7
		c0.2-0.4,0.5-0.9,0.8-1.3c0.3-0.5,0.6-0.9,0.9-1.3c0.6-0.9,1.3-1.7,2.1-2.4c0.8-0.7,1.6-1.5,2.4-2.1c0.8-0.7,1.7-1.2,2.6-1.7
		C16.1,7.4,16.6,7.2,17,7c0.4-0.2,0.9-0.4,1.3-0.5c0.4-0.1,0.8-0.3,1.3-0.4C20,6,20.4,5.9,20.8,5.8c0.8-0.2,1.5-0.3,2.1-0.4
		c0.6-0.1,1.2-0.1,1.6-0.1c0.9,0,1.4,0,1.4,0C23.3,2.6,19.7,1,15.6,1H1v14.6c0,3.5,1.2,6.6,3.2,9.1C4.3,24.5,4.3,24.2,4.4,23.9z"/>
</g>
<path class="st1" d="M14.6,0H0v14.6c0,8.1,6.5,14.6,14.6,14.6h0c8.1,0,14.6-6.5,14.6-14.6v0C29.3,6.5,22.7,0,14.6,0z"/>
<path class="st2" d="M11.3,1.4"/>
<path class="st2" d="M25.9,16.1"/>
<g>
	<circle class="st3" cx="25" cy="23.7" r="7"/>
	<g>
		<defs>
			<circle id="SVGID_1_" cx="25" cy="23.7" r="7"/>
		</defs>
		<clipPath id="SVGID_2_">
			<use xlink:href="#SVGID_1_"  style="overflow:visible;"/>
		</clipPath>
		<g class="st4">
			<path class="st5" d="M31.3,27.6c0,0,0-0.3,0-0.7c0-0.2-0.1-0.4-0.1-0.7c0-0.3-0.2-0.6-0.3-0.9c-0.1-0.3-0.3-0.7-0.5-1
				c-0.2-0.4-0.4-0.7-0.7-1.1c-0.3-0.4-0.6-0.7-0.9-1.1c-0.4-0.3-0.7-0.7-1.1-1c-0.4-0.3-0.8-0.6-1.2-0.8c-0.4-0.2-0.8-0.5-1.3-0.7
				c-0.4-0.2-0.8-0.4-1.2-0.5c-0.4-0.2-0.8-0.2-1.2-0.3c-0.4-0.1-0.7-0.1-1-0.2c-0.3-0.1-0.6-0.1-0.8-0.1c-0.4,0-0.7-0.1-0.7-0.1
				s0.3,0,0.7,0c0.2,0,0.5,0,0.8,0c0.3,0,0.7,0,1,0.1c0.4,0.1,0.8,0.1,1.2,0.3c0.4,0.1,0.9,0.2,1.3,0.4c0.5,0.1,0.9,0.4,1.3,0.6
				c0.4,0.3,0.9,0.5,1.3,0.8c0.4,0.3,0.8,0.6,1.2,0.9c0.4,0.3,0.7,0.7,1.1,1.1c0.3,0.4,0.6,0.7,0.8,1.1c0.2,0.4,0.4,0.8,0.6,1.1
				c0.1,0.4,0.3,0.7,0.4,1c0.1,0.3,0.2,0.6,0.2,0.8c0,0.4,0.1,0.7,0.1,0.7L31.3,27.6z"/>
		</g>
	</g>
</g>
<g>
	<path class="st3" d="M21,18.6c0.2,0,0.5,0,0.8,0c0.3,0,0.7,0,1,0.1c0.7,0.1,1.6,0.3,2.5,0.7c0.9,0.3,1.8,0.8,2.7,1.4
		c0.4,0.3,0.8,0.6,1.2,0.9c0.4,0.3,0.8,0.7,1.1,1.1c0.3,0.4,0.6,0.7,0.9,1.1c0.2,0.4,0.5,0.8,0.6,1.1c0,0,0,0.1,0,0.1
		c0.1-0.4,0.1-0.9,0.1-1.4v-7h-7c-1.8,0-3.4,0.7-4.7,1.8C20.3,18.6,20.6,18.6,21,18.6z"/>
	<path class="st3" d="M31.1,27c0-0.2-0.1-0.4-0.1-0.7c0-0.3-0.2-0.6-0.2-0.9c-0.1-0.3-0.3-0.7-0.5-1c-0.2-0.4-0.4-0.7-0.7-1.1
		c-0.3-0.4-0.6-0.7-0.9-1.1c-0.3-0.3-0.7-0.7-1.1-1c-0.8-0.6-1.6-1.1-2.5-1.5c-0.8-0.4-1.7-0.7-2.4-0.8c-0.4-0.1-0.7-0.1-1-0.2
		c-0.3-0.1-0.6-0.1-0.8-0.1c-0.4,0-0.7-0.1-0.7-0.1c-1.4,1.3-2.3,3.1-2.3,5.2c0,3.9,3.1,7,7,7C27.6,30.7,30,29.2,31.1,27
		C31.1,27,31.1,27,31.1,27z"/>
</g>
<path class="st1" d="M18,23.7L18,23.7c0,3.9,3.1,7,7,7h0c3.9,0,7-3.1,7-7v-7h-7C21.1,16.7,18,19.9,18,23.7z"/>
</svg>
